<svg xmlns="http://www.w3.org/2000/svg" xmlns:xlink="http://www.w3.org/1999/xlink" width="500" zoomAndPan="magnify" viewBox="0 0 375 374.999991" height="500" preserveAspectRatio="xMidYMid meet" version="1.0"><defs><clipPath id="92e2a9e828"><path d="M 35.914062 0 L 36.664062 0 L 36.664062 345.75 L 35.914062 345.75 Z M 35.914062 0 " clip-rule="nonzero"/></clipPath><clipPath id="f3ce06c4e8"><path d="M 48.449219 48.449219 L 326.550781 48.449219 L 326.550781 326.550781 L 48.449219 326.550781 Z M 48.449219 48.449219 " clip-rule="nonzero"/></clipPath><clipPath id="cfc7458829"><path d="M 187.5 48.449219 C 110.703125 48.449219 48.449219 110.703125 48.449219 187.5 C 48.449219 264.292969 110.703125 326.550781 187.5 326.550781 C 264.292969 326.550781 326.550781 264.292969 326.550781 187.5 C 326.550781 110.703125 264.292969 48.449219 187.5 48.449219 Z M 187.5 48.449219 " clip-rule="nonzero"/></clipPath><clipPath id="a02c274213"><path d="M 0.449219 0.449219 L 278.550781 0.449219 L 278.550781 278.550781 L 0.449219 278.550781 Z M 0.449219 0.449219 " clip-rule="nonzero"/></clipPath><clipPath id="3d42902043"><path d="M 139.5 0.449219 C 62.703125 0.449219 0.449219 62.703125 0.449219 139.5 C 0.449219 216.292969 62.703125 278.550781 139.5 278.550781 C 216.292969 278.550781 278.550781 216.292969 278.550781 139.5 C 278.550781 62.703125 216.292969 0.449219 139.5 0.449219 Z M 139.5 0.449219 " clip-rule="nonzero"/></clipPath><clipPath id="30a3dff72b"><rect x="0" width="279" y="0" height="279"/></clipPath><clipPath id="7448985d28"><path d="M 97.023438 97.023438 L 277.773438 97.023438 L 277.773438 277.773438 L 97.023438 277.773438 Z M 97.023438 97.023438 " clip-rule="nonzero"/></clipPath></defs><g clip-path="url(#92e2a9e828)"><path fill="#ffffff" d="M 35.96875 0 L 36.714844 0 L 36.714844 346 L 35.96875 346 Z M 35.96875 0 " fill-opacity="1" fill-rule="nonzero"/></g><g clip-path="url(#f3ce06c4e8)"><g clip-path="url(#cfc7458829)"><g transform="matrix(1, 0, 0, 1, 48, 48)"><g clip-path="url(#30a3dff72b)"><g clip-path="url(#a02c274213)"><g clip-path="url(#3d42902043)"><path fill="#cda26f" d="M 0.449219 0.449219 L 278.550781 0.449219 L 278.550781 278.550781 L 0.449219 278.550781 Z M 0.449219 0.449219 " fill-opacity="1" fill-rule="nonzero"/></g></g></g></g></g></g><g clip-path="url(#7448985d28)"><path fill="#4e3100" d="M 192.675781 99.863281 L 204.160156 111.28125 C 206.003906 113.113281 208.6875 113.832031 211.207031 113.164062 L 226.859375 109.019531 C 230.757812 107.984375 234.757812 110.296875 235.8125 114.183594 L 240.042969 129.8125 C 240.726562 132.324219 242.6875 134.285156 245.199219 134.96875 L 260.828125 139.203125 C 264.722656 140.257812 267.027344 144.257812 265.996094 148.152344 L 261.847656 163.808594 C 261.179688 166.324219 261.898438 169.003906 263.734375 170.855469 L 275.148438 182.335938 C 277.992188 185.195312 277.992188 189.808594 275.148438 192.671875 L 263.734375 204.15625 C 261.898438 206 261.179688 208.683594 261.847656 211.199219 L 265.996094 226.855469 C 267.027344 230.753906 264.714844 234.75 260.828125 235.804688 L 245.199219 240.039062 C 242.6875 240.722656 240.726562 242.683594 240.042969 245.195312 L 235.8125 260.824219 C 234.757812 264.714844 230.757812 267.023438 226.859375 265.988281 L 211.207031 261.84375 C 208.6875 261.175781 206.007812 261.894531 204.160156 263.726562 L 192.675781 275.144531 C 189.820312 277.988281 185.203125 277.988281 182.339844 275.144531 L 170.859375 263.726562 C 169.015625 261.894531 166.328125 261.175781 163.8125 261.84375 L 148.160156 265.988281 C 144.261719 267.023438 140.261719 264.710938 139.207031 260.824219 L 134.972656 245.195312 C 134.292969 242.683594 132.332031 240.722656 129.820312 240.039062 L 114.191406 235.804688 C 110.296875 234.75 107.988281 230.753906 109.023438 226.855469 L 113.171875 211.199219 C 113.839844 208.683594 113.121094 206.003906 111.285156 204.15625 L 99.871094 192.671875 C 97.027344 189.816406 97.027344 185.199219 99.871094 182.335938 L 111.285156 170.855469 C 113.121094 169.007812 113.839844 166.324219 113.171875 163.808594 L 109.023438 148.152344 C 107.988281 144.257812 110.304688 140.257812 114.191406 139.203125 L 129.820312 134.96875 C 132.332031 134.285156 134.292969 132.324219 134.972656 129.8125 L 139.207031 114.183594 C 140.261719 110.292969 144.261719 107.984375 148.160156 109.019531 L 163.8125 113.164062 C 166.328125 113.832031 169.007812 113.113281 170.859375 111.28125 L 182.339844 99.863281 C 185.199219 97.023438 189.816406 97.023438 192.675781 99.863281 Z M 192.675781 99.863281 " fill-opacity="1" fill-rule="nonzero"/></g><path fill="#ffffff" d="M 170.390625 222.457031 C 168.621094 222.457031 166.855469 221.785156 165.507812 220.4375 L 143.660156 198.585938 C 140.964844 195.890625 140.964844 191.519531 143.660156 188.820312 C 146.355469 186.121094 150.726562 186.125 153.421875 188.820312 L 170.390625 205.789062 L 221.597656 154.582031 C 224.292969 151.886719 228.664062 151.886719 231.363281 154.582031 C 234.058594 157.277344 234.058594 161.648438 231.363281 164.347656 L 175.277344 220.4375 C 173.925781 221.785156 172.164062 222.457031 170.394531 222.457031 Z M 170.390625 222.457031 " fill-opacity="1" fill-rule="nonzero"/></svg>